<svg id="Layer_1" data-name="Layer 1" xmlns="http://www.w3.org/2000/svg" viewBox="0 0 1000 1000"><defs><style>.cls-1{fill:#54c8e8;}.cls-2{fill:#0167fd;}.cls-3{fill:#dfe1df;}</style></defs><circle class="cls-1" cx="192.03" cy="202.83" r="104.01"/><circle class="cls-1" cx="491.63" cy="202.83" r="104.01"/><circle class="cls-2" cx="791.22" cy="202.83" r="104.01"/><circle class="cls-2" cx="192.03" cy="504.6" r="104.01"/><path class="cls-3" d="M192,677.37c-95.28,0-172.78-77.5-172.78-172.77S96.75,331.82,192,331.82,364.81,409.33,364.81,504.6,287.31,677.37,192,677.37Zm0-315.23c-78.55,0-142.47,63.9-142.47,142.46S113.48,647.06,192,647.06,334.5,583.15,334.5,504.6,270.59,362.14,192,362.14Z"/><path class="cls-3" d="M491.63,979.14c-95.28,0-172.79-77.5-172.79-172.77S396.35,633.6,491.63,633.6s172.78,77.5,172.78,172.77S586.9,979.14,491.63,979.14Zm0-315.23c-78.56,0-142.47,63.9-142.47,142.46s63.91,142.46,142.47,142.46,142.46-63.9,142.46-142.46S570.18,663.91,491.63,663.91Z"/><path class="cls-3" d="M791.22,375.6c-95.27,0-172.77-77.5-172.77-172.77S696,30.05,791.22,30.05,964,107.56,964,202.83,886.5,375.6,791.22,375.6Zm0-315.24c-78.56,0-142.46,63.91-142.46,142.47s63.9,142.46,142.46,142.46,142.47-63.91,142.47-142.46S869.77,60.36,791.22,60.36Z"/><circle class="cls-1" cx="491.63" cy="504.6" r="104.01"/><circle class="cls-1" cx="791.22" cy="504.6" r="104.01"/><circle class="cls-1" cx="192.03" cy="806.37" r="104.01"/><circle class="cls-2" cx="491.63" cy="806.37" r="104.01"/><circle class="cls-1" cx="791.22" cy="806.37" r="104.01"/></svg>