<svg id="Icons" xmlns="http://www.w3.org/2000/svg" viewBox="0 0 55 55"><defs><style>.cls-1{fill:#54c8e8;}.cls-2{fill:#dfe1df;}.cls-3{fill:#0167fd;}</style></defs><g id="advertising"><path class="cls-1" d="M29.49,24.86a5.77,5.77,0,0,1,3.73-7.23l-.35-1.12-.18-.6-.42-1.3L30.2,8.1A2.36,2.36,0,0,0,28.72,11l-16,10A9.17,9.17,0,0,0,6.4,30.19l-1.48.47L6.34,35l1.48-.47a9.19,9.19,0,0,0,8.23,4.26l2.19,6.81,6-1.95a6.83,6.83,0,0,1-3.08-3.79,14.88,14.88,0,0,1-.41-1.66l16.34-1.07A2.34,2.34,0,0,0,40,38.59L38,32.08l-.42-1.3-.17-.59-.48-1.43A6,6,0,0,1,29.49,24.86Z"/><path class="cls-2" d="M33.22,17.63l.36,1.13.65,2,1.6,5,.65,2,.29.83a5.77,5.77,0,0,0,3.73-7.23A5.84,5.84,0,0,0,33.22,17.63Z"/><path class="cls-3" d="M35.83,25.74l-1.6-5-.65-2-.36-1.13a5.75,5.75,0,0,0,3.49,11l-.29-.83Z"/><path class="cls-2" d="M48.08,18.93a13.79,13.79,0,0,1-.88,10.54l1.89,1a15.61,15.61,0,0,0,1-12.14,16,16,0,0,0-7.88-9.29l-1,1.89A13,13,0,0,1,48.08,18.93Z"/><path class="cls-2" d="M43.17,20.47a8.73,8.73,0,0,1-.53,6.58l2.13,1.06A10.89,10.89,0,0,0,40,13.37L39,15.5A8.59,8.59,0,0,1,43.17,20.47Z"/></g></svg>