<svg id="Layer_1" data-name="Layer 1" xmlns="http://www.w3.org/2000/svg" viewBox="0 0 172.97 28.17"><defs><style>.cls-1{fill:#54c8e8;}.cls-2{fill:#ffa400;}.cls-3{fill:#e43d30;}.cls-4{fill:#252628;}</style></defs><title>Comscore</title><path class="cls-1" d="M31.25,10.92v9.8l-19.59,2v5.49l27,2.7V10.18Z" transform="translate(-4.22 -2.74)"/><path class="cls-2" d="M4.22,2.74V23.41l7.44-.74V12.85l19.59-1.93V5.41Z" transform="translate(-4.22 -2.74)"/><path class="cls-3" d="M31.25,10.92,11.66,12.85v9.82l19.59-2Z" transform="translate(-4.22 -2.74)"/><path class="cls-4" d="M52.24,18a7,7,0,0,1,7-7h.06a6.8,6.8,0,0,1,6.41,4.14l-2.6,1.11a4,4,0,0,0-3.81-2.54,4.21,4.21,0,0,0-4.22,4.2s0,.06,0,.09a4.26,4.26,0,0,0,4.19,4.33h.08a4.07,4.07,0,0,0,3.81-2.65l2.62,1.11A6.82,6.82,0,0,1,59.29,25a7,7,0,0,1-7.06-6.94V18" transform="translate(-4.22 -2.74)"/><path class="cls-4" d="M79.24,18a4.15,4.15,0,1,0-4.15,4.15A4.15,4.15,0,0,0,79.24,18M68.08,18a7,7,0,1,1,7,7,7,7,0,0,1-7-7" transform="translate(-4.22 -2.74)"/><path class="cls-4" d="M84.4,11.25h2.87v1.62a4.73,4.73,0,0,1,4-1.89,4.68,4.68,0,0,1,4.46,2.43A5.24,5.24,0,0,1,100.27,11c3.68,0,5.6,2.22,5.6,5.68v8.11h-2.95V16.85c0-2-1.11-3.35-3.14-3.35-1.81,0-3.22,1.24-3.22,3.65v7.62H93.65V16.71a2.89,2.89,0,0,0-3.06-3.22c-1.89,0-3.3,1.27-3.3,3.76v7.52H84.4Z" transform="translate(-4.22 -2.74)"/><path class="cls-4" d="M121.82,18a7,7,0,0,1,7-7h.06a6.8,6.8,0,0,1,6.41,4.14l-2.6,1.11a4,4,0,0,0-3.81-2.54,4.21,4.21,0,0,0-4.22,4.2s0,.06,0,.09a4.26,4.26,0,0,0,4.19,4.33h.08a4.07,4.07,0,0,0,3.81-2.65l2.62,1.11A6.82,6.82,0,0,1,128.88,25a7,7,0,0,1-7.06-6.94V18" transform="translate(-4.22 -2.74)"/><path class="cls-4" d="M148.29,18a4.15,4.15,0,1,0-4.15,4.15A4.15,4.15,0,0,0,148.29,18m-11.17,0a7,7,0,1,1,7,7,7,7,0,0,1-7-7" transform="translate(-4.22 -2.74)"/><path class="cls-4" d="M153.4,11.25h2.89v2.08A3.92,3.92,0,0,1,160,11.25h1.59V14h-2c-2.35,0-3.27,1.24-3.27,4v6.71H153.4Z" transform="translate(-4.22 -2.74)"/><path class="cls-4" d="M166.16,16.55h8.11a3.77,3.77,0,0,0-4-3,4.2,4.2,0,0,0-4.11,3m-2.92,1.51A7,7,0,0,1,170.16,11h.08a6.7,6.7,0,0,1,6.95,6.44q0,.22,0,.45V19H166a4.14,4.14,0,0,0,4.35,3.46,4.24,4.24,0,0,0,4-2.46l2.38,1.32A7.19,7.19,0,0,1,163.25,18" transform="translate(-4.22 -2.74)"/><path class="cls-4" d="M108.35,21.85l2.6-1.35a3.85,3.85,0,0,0,3.46,2c1.62,0,2.46-.84,2.46-1.78S115.3,19.36,113.6,19c-2.3-.49-4.68-1.24-4.68-4,0-2.14,2-4.11,5.22-4.08a6.15,6.15,0,0,1,5.43,2.62l-2.41,1.32a3.49,3.49,0,0,0-3-1.54c-1.54,0-2.33.76-2.33,1.62s1.24,1.24,3.19,1.68c2.22.49,4.73,1.22,4.73,4,0,1.87-1.62,4.38-5.46,4.35a6.32,6.32,0,0,1-5.92-3.14" transform="translate(-4.22 -2.74)"/></svg>