<svg id="Layer_1" data-name="Layer 1" xmlns="http://www.w3.org/2000/svg" xmlns:xlink="http://www.w3.org/1999/xlink" viewBox="0 0 734.8 652.2"><defs><style>.cls-1,.cls-13,.cls-14,.cls-15{fill:none;}.cls-2{clip-path:url(#clip-path);}.cls-3{fill:#e6e7e9;}.cls-4{fill:#54c8e8;}.cls-5{fill:#d1d1d1;}.cls-6{fill:#0067ff;}.cls-7{fill:#4400d3;}.cls-8{fill:#f47e20;}.cls-9{fill:#fff000;}.cls-10{fill:#f8a21b;}.cls-11{fill:#e33d2d;}.cls-12{fill:#fff;}.cls-13{stroke:#4400d1;}.cls-13,.cls-14,.cls-15{stroke-linejoin:round;stroke-width:2.66px;}.cls-14,.cls-16{stroke:#4400d3;}.cls-15{stroke:#f8a21b;}.cls-16{fill:#4400d1;stroke-miterlimit:10;}.cls-17{fill:#e31e25;}</style><clipPath id="clip-path" transform="translate(-198.96 -1.91)"><rect class="cls-1" width="880" height="649.1"/></clipPath></defs><title>cross-platform</title><g class="cls-2"><polygon class="cls-3" points="734.8 652.2 734.8 0 64.99 0 0 652.2 734.8 652.2"/><polygon class="cls-4" points="235.83 154.12 288.38 154.12 288.38 51.03 321.19 51.03 321.19 0 163.25 0 163.25 82.47 235.83 82.47 235.83 154.12"/><polygon class="cls-5" points="136.04 359.16 136.04 306.44 67.49 306.44 67.49 429.42 105.64 429.42 105.64 359.16 136.04 359.16"/><polygon class="cls-5" points="235.83 154.12 163.25 154.12 163.25 82.47 23.26 82.47 23.26 215.28 235.83 215.28 235.83 154.12"/><rect class="cls-6" x="163.26" y="82.47" width="72.58" height="71.66"/><polygon class="cls-6" points="561.59 548.33 680.91 548.33 680.91 377.63 414.94 377.63 414.94 491.72 561.59 491.72 561.59 548.33"/><polygon class="cls-5" points="414.94 548.33 414.94 491.72 362.03 491.72 362.03 530.52 321.19 530.52 321.19 652.2 561.59 652.2 561.59 548.33 414.94 548.33"/><rect class="cls-7" x="414.94" y="491.72" width="146.65" height="56.6"/><rect class="cls-8" x="611.5" y="585.28" width="123.3" height="66.91"/><polygon class="cls-9" points="362.03 491.72 362.03 359.16 136.04 359.16 136.04 429.42 105.64 429.42 105.64 530.52 321.19 530.52 321.19 491.72 362.03 491.72"/><rect class="cls-10" x="105.64" y="359.16" width="30.4" height="70.26"/><rect class="cls-10" x="321.2" y="491.72" width="40.83" height="38.8"/><polygon class="cls-8" points="288.38 154.12 288.38 277.29 652.2 277.29 652.2 200.09 680.9 200.09 680.9 51.03 322.2 51.03 322.2 154.12 288.38 154.12"/><rect class="cls-11" x="288.38" y="51.03" width="33.81" height="103.09"/><polygon class="cls-4" points="651.2 277.29 651.2 314.51 713.7 314.51 713.7 200.09 679.9 200.09 679.9 277.29 651.2 277.29"/><circle class="cls-6" cx="682.45" cy="296.46" r="6.65"/><rect class="cls-11" x="651.2" y="200.09" width="29.7" height="77.2"/><circle class="cls-11" cx="483.64" cy="163.84" r="38.27"/><polygon class="cls-8" points="477.15 154.19 486.32 159.48 495.48 164.77 495.48 164.77 486.32 170.06 477.15 175.36 477.15 175.36 477.15 164.77 477.15 154.19"/><rect class="cls-12" x="79.53" y="316.72" width="29.23" height="5.85" rx="2.9" ry="2.9"/><circle class="cls-12" cx="121.02" cy="319.64" r="2.93"/><line class="cls-13" x1="184.3" y1="36.93" x2="236.86" y2="36.93"/><line class="cls-13" x1="184.3" y1="28.18" x2="236.86" y2="28.18"/><line class="cls-13" x1="184.3" y1="45.69" x2="236.86" y2="45.69"/><line class="cls-13" x1="184.3" y1="54.44" x2="220.78" y2="54.44"/><line class="cls-14" x1="432.27" y1="451.23" x2="484.83" y2="451.23"/><line class="cls-14" x1="432.27" y1="459.99" x2="484.83" y2="459.99"/><line class="cls-14" x1="432.27" y1="468.74" x2="468.76" y2="468.74"/><line class="cls-14" x1="505.86" y1="451.23" x2="558.42" y2="451.23"/><line class="cls-14" x1="505.86" y1="459.99" x2="558.42" y2="459.99"/><line class="cls-14" x1="505.86" y1="468.74" x2="542.34" y2="468.74"/><path class="cls-12" d="M255.11,113.38H238a1.08,1.08,0,0,1,0-2.15h17.16a1.08,1.08,0,0,1,0,2.15Z" transform="translate(-198.96 -1.91)"/><path class="cls-12" d="M255.11,107.06H238a1.08,1.08,0,0,1,0-2.15h17.16a1.08,1.08,0,0,1,0,2.15Z" transform="translate(-198.96 -1.91)"/><path class="cls-12" d="M255.11,100.75H238a1.08,1.08,0,0,1,0-2.15h17.16a1.08,1.08,0,0,1,0,2.15Z" transform="translate(-198.96 -1.91)"/><line class="cls-15" x1="161.21" y1="389.72" x2="213.77" y2="389.72"/><line class="cls-15" x1="161.21" y1="380.96" x2="213.77" y2="380.96"/><line class="cls-15" x1="161.21" y1="398.47" x2="213.77" y2="398.47"/><line class="cls-15" x1="161.21" y1="407.22" x2="197.69" y2="407.22"/><rect class="cls-15" x="130.21" y="459.96" width="50.88" height="50.88"/><rect class="cls-15" x="193.53" y="459.96" width="110.12" height="50.88"/><polygon class="cls-4" points="245.42 317.41 255.37 411.15 275.48 381.04 315.65 381.08 245.42 317.41"/><rect class="cls-14" x="506.01" y="400.69" width="35.28" height="35.28"/><rect class="cls-14" x="435.45" y="400.69" width="35.28" height="35.28" rx="17.5" ry="17.5"/><path class="cls-16" d="M851.06,411.52h0a1,1,0,0,1,0-1.39l9.86-9.86a1,1,0,0,1,1.39,0h0a1,1,0,0,1,0,1.39l-9.86,9.86A1,1,0,0,1,851.06,411.52Z" transform="translate(-198.96 -1.91)"/><path class="cls-16" d="M862.31,411.52h0a1,1,0,0,0,0-1.39l-9.86-9.86a1,1,0,0,0-1.39,0h0a1,1,0,0,0,0,1.39l9.86,9.86A1,1,0,0,0,862.31,411.52Z" transform="translate(-198.96 -1.91)"/><path class="cls-16" d="M837.1,400.75a5.14,5.14,0,1,1-5.14,5.14,5.14,5.14,0,0,1,5.14-5.14h0m0-1.5a6.64,6.64,0,1,0,6.64,6.64,6.64,6.64,0,0,0-6.64-6.64Z" transform="translate(-198.96 -1.91)"/><path class="cls-16" d="M823.51,411.48h-12a.75.75,0,0,1,0-1.5h12a.75.75,0,0,1,0,1.5Z" transform="translate(-198.96 -1.91)"/><path class="cls-17" d="M842.79,616.38H825.63a1.08,1.08,0,0,1,0-2.15h17.16a1.08,1.08,0,0,1,0,2.15Z" transform="translate(-198.96 -1.91)"/><path class="cls-17" d="M842.79,610.06H825.63a1.08,1.08,0,0,1,0-2.15h17.16a1.08,1.08,0,0,1,0,2.15Z" transform="translate(-198.96 -1.91)"/><path class="cls-17" d="M842.79,603.75H825.63a1.08,1.08,0,0,1,0-2.15h17.16a1.08,1.08,0,0,1,0,2.15Z" transform="translate(-198.96 -1.91)"/></g></svg>