<svg id="Icons" xmlns="http://www.w3.org/2000/svg" viewBox="0 0 55 55"><defs><style>.cls-1{fill:none;}.cls-2{fill:#54c8e8;}.cls-3{fill:#dfe1df;}.cls-4{fill:#0167fd;}</style></defs><g id="Digital"><path class="cls-1" d="M19.54,21.06h-2.2v4.5h4.5v-2.2A2.33,2.33,0,0,0,19.54,21.06Z"/><circle class="cls-1" cx="42.14" cy="9.86" r="2.2"/><circle class="cls-1" cx="42.14" cy="27.86" r="2.2"/><circle class="cls-1" cx="42.14" cy="45.86" r="2.2"/><rect class="cls-2" x="17.34" y="25.56" width="4.5" height="4.5"/><path class="cls-2" d="M35.74,30.06a6.8,6.8,0,1,0,6.4-9.1,6.94,6.94,0,0,0-6.4,4.5h-9.4V30h9.4Zm6.4-4.5a2.2,2.2,0,1,1-2.2,2.2A2.22,2.22,0,0,1,42.14,25.56Z"/><rect class="cls-2" x="6.14" y="25.56" width="6.8" height="4.5"/><path class="cls-3" d="M17.34,21.06h2.2a2.26,2.26,0,0,1,2.3,2.3v2.2h4.5v-2.2a6.81,6.81,0,0,0-6.8-6.8h-2.2v-2.2a2.26,2.26,0,0,1,2.3-2.3h16.1a6.8,6.8,0,0,0,13.2-2.3A6.74,6.74,0,0,0,42.14,3a6.94,6.94,0,0,0-6.4,4.5H19.64a6.81,6.81,0,0,0-6.8,6.8v2.2H6V21h6.8v4.5h4.5Zm24.8-13.5a2.2,2.2,0,1,1-2.2,2.2A2.22,2.22,0,0,1,42.14,7.56Z"/><path class="cls-3" d="M21.84,30.06v11.2a6.81,6.81,0,0,0,6.8,6.8h7.1a6.8,6.8,0,1,0,6.4-9.1,6.94,6.94,0,0,0-6.4,4.5h-7.1a2.26,2.26,0,0,1-2.3-2.3V30h-4.5Zm20.3,13.5a2.2,2.2,0,1,1-2.2,2.2A2.22,2.22,0,0,1,42.14,43.56Z"/><path class="cls-3" d="M12.84,32.36a2.26,2.26,0,0,1-2.3,2.3H6.14v4.5h4.4a6.81,6.81,0,0,0,6.8-6.8v-2.2h-4.5Z"/><rect class="cls-4" x="12.84" y="25.56" width="4.5" height="4.5"/><rect class="cls-4" x="21.84" y="25.56" width="4.5" height="4.5"/><path class="cls-1" d="M19.54,21.06h-2.2v4.5h4.5v-2.2A2.33,2.33,0,0,0,19.54,21.06Z"/><circle class="cls-1" cx="42.14" cy="9.86" r="2.2"/><circle class="cls-1" cx="42.14" cy="27.86" r="2.2"/><circle class="cls-1" cx="42.14" cy="45.86" r="2.2"/></g></svg>