<svg id="Icons" xmlns="http://www.w3.org/2000/svg" viewBox="0 0 55 55"><defs><style>.cls-1{fill:#dfe1df;}.cls-2{fill:#55c8e7;}.cls-3{fill:#0167fd;}</style></defs><g id="moives"><path class="cls-1" d="M16.13,40.91c-.27-.21-.48-.48-.75-.69a8.66,8.66,0,0,0-10.45,0A8.18,8.18,0,0,0,4.1,41a8.3,8.3,0,0,0-1.23,1.51l.75,3.23H16.75l.76-3.37C17,41.87,16.62,41.39,16.13,40.91Z"/><path class="cls-1" d="M33.6,40.91c-.28-.21-.49-.48-.76-.69a8.66,8.66,0,0,0-10.45,0,8.18,8.18,0,0,0-.83.76,8.3,8.3,0,0,0-1.23,1.51l.75,3.23H34.21L35,42.35C34.49,41.87,34.08,41.39,33.6,40.91Z"/><path class="cls-1" d="M51.06,40.91c-.28-.21-.48-.48-.76-.69a8.66,8.66,0,0,0-10.45,0A8.12,8.12,0,0,0,39,41a8,8,0,0,0-1.24,1.51l.75,3.23H51.67l.76-3.37C52,41.87,51.54,41.39,51.06,40.91Z"/><path class="cls-2" d="M40,28.33h0a2.8,2.8,0,0,1,.07-.76,5,5,0,0,1,5-4.33V10.87a2.17,2.17,0,0,0-2.2-2.2H12.35a2.22,2.22,0,0,0-2.2,2.2V23.24h.48a5.14,5.14,0,0,1,4.61,4.61v.48h0v2.89h7.29V28.33h0a2.8,2.8,0,0,1,.07-.76,5.05,5.05,0,0,1,5.5-4.33,5.13,5.13,0,0,1,4.6,4.61v.48h0v2.89H40V28.33Z"/><path class="cls-2" d="M22.53,31.28a5.08,5.08,0,0,0,5.08,5.09,2.76,2.76,0,0,0,.76-.07,5,5,0,0,0,4.33-5.08l-10.17.06Z"/><path class="cls-3" d="M32.7,28.33v-.48a5.09,5.09,0,0,0-10.1-.28c0,.21-.07.48-.07.76h0v2.89H32.7V28.33Z"/><path class="cls-1" d="M10.15,29V23.31a5.12,5.12,0,0,0-5,4.33c0,.21-.06.48-.06.76h0v2.88h0v.07a5.07,5.07,0,0,0,5.08,5.09,2.8,2.8,0,0,0,.76-.07,5,5,0,0,0,4.33-5.09H12.35A2.27,2.27,0,0,1,10.15,29Z"/><path class="cls-3" d="M15.24,28.33v-.48a5.14,5.14,0,0,0-4.61-4.61h-.48V29a2.18,2.18,0,0,0,2.2,2.2h2.89V28.33Z"/><path class="cls-1" d="M50.16,28.33v-.48a5.13,5.13,0,0,0-4.6-4.61h-.48V29a2.18,2.18,0,0,1-2.2,2.2H40v.07a5.08,5.08,0,0,0,5.09,5.08,2.73,2.73,0,0,0,.75-.07,5,5,0,0,0,4.33-5.08h0V28.33Z"/><path class="cls-3" d="M45.08,29V23.31a5.1,5.1,0,0,0-5,4.33c0,.21-.07.48-.07.76h0v2.88h2.89A2.32,2.32,0,0,0,45.08,29Z"/><path class="cls-1" d="M22.53,31.28a5.08,5.08,0,0,0,5.08,5.09,2.76,2.76,0,0,0,.76-.07,5,5,0,0,0,4.33-5.08l-10.17.06Z"/></g></svg>