<svg id="Layer_1" data-name="Layer 1" xmlns="http://www.w3.org/2000/svg" viewBox="0 0 1000 1000"><defs><style>.cls-1{fill:#4ec8ea;}.cls-2{fill:#cbcccb;}.cls-3{fill:#4069b2;}</style></defs><polygon class="cls-1" points="327.809 439.282 327.809 343.662 327.809 336.307 49.53 336.307 49.53 461.349 49.53 652.589 49.53 777.631 49.53 887.962 215.027 777.631 270.192 777.631 656.351 777.631 656.351 652.589 656.351 564.324 327.809 564.324 327.809 439.282"/><polygon class="cls-2" points="327.809 123 327.809 246.816 327.809 336.307 656.351 336.307 656.351 461.349 656.351 556.969 656.351 564.324 713.968 564.324 769.133 564.324 934.63 674.655 934.63 564.324 934.63 439.282 934.63 246.816 934.63 123 327.809 123"/><polygon class="cls-3" points="656.351 461.349 656.351 336.307 327.809 336.307 327.809 343.662 327.809 439.282 327.809 564.324 656.351 564.324 656.351 556.969 656.351 461.349"/></svg>