<?xml version="1.0" encoding="utf-8"?>
<!-- Generator: Adobe Illustrator 25.4.2, SVG Export Plug-In . SVG Version: 6.00 Build 0)  -->
<svg version="1.1" xmlns="http://www.w3.org/2000/svg" xmlns:xlink="http://www.w3.org/1999/xlink" x="0px" y="0px"
	 viewBox="0 0 705 471" style="enable-background:new 0 0 705 471;" xml:space="preserve">
<style type="text/css">
	.st0{display:none;}
	.st1{display:inline;fill:#DEE0DE;}
	.st2{display:inline;fill:#E53D30;}
	.st3{display:inline;fill:#FFFFFF;}
	.st4{display:inline;fill:#383328;}
	.st5{display:inline;fill:#D46E1B;}
	.st6{display:inline;fill:#BC7D31;}
	.st7{display:inline;fill:#282F39;}
	.st8{display:inline;fill:#F57E20;}
	.st9{clip-path:url(#SVGID_00000177479450302895677090000003822775248572669583_);}
	.st10{fill:#E6E7E8;}
	.st11{opacity:0.18;}
	.st12{fill:#DB9C57;}
	.st13{fill:#FFFFFF;}
	.st14{fill:#DEE0DE;}
	.st15{fill:#F58021;}
	.st16{fill:#282F39;}
	.st17{fill:#0066FF;}
	.st18{fill:#EBECED;}
	.st19{fill:#5DCAE8;}
	.st20{fill:#000FBF;}
	.st21{fill:#FFC72C;}
	.st22{fill:#E63E30;}
	.st23{fill:#54C8E8;}
	.st24{clip-path:url(#SVGID_00000168804849748320206640000015294775916747530405_);}
	.st25{fill:#AC752A;}
	.st26{fill:#F57E20;}
	.st27{fill:#966622;}
</style>
<g id="Layer_4">
</g>
<g id="Layer_5">
</g>
<g id="cross_platform" class="st0">
	<path class="st1" d="M367.2,302.2c25.4,2.2,49.2,10.1,70.3,22.4c26.8-10.8,41.9-23.8,41.9-23.8l-12.8-185.4
		c-2.4-23.4-19.9-44.3-44.3-44.3h-62.8L253.7,90.2l-17.5,210.6c13.1,7.8,25.9,14.2,38.3,19.4C301.9,306.2,333.7,299.3,367.2,302.2"
		/>
	<path class="st2" d="M437.6,324.6c-21.1-12.3-45-20.3-70.3-22.4c-33.6-2.9-65.3,4-92.8,18C344.8,349.6,401.7,339.1,437.6,324.6"/>
	<path class="st3" d="M380.7,122.8c-11.1,20.4-36.5,34.7-66.1,34.7c-20.5,0-39-6.9-52.1-17.9c-2,5.8-3.4,11.8-4.3,17.9
		c-0.7,4.7-1.1,9.5-1.1,14.4v28.8c0,55.7,45.1,100.8,100.8,100.8c4.9,0,9.7-0.5,14.4-1.1c48.8-7,86.4-48.9,86.4-99.7h0.1v-28.8h-0.1
		c0-2.9-0.1-5.9-0.3-8.9c-1.2-13.9-5.4-27.1-11.8-38.9c-9,2.9-19.6,4.6-31,4.6C402.4,128.7,390.4,126.5,380.7,122.8"/>
	<path class="st1" d="M386.1,75.1c-1.9,0.6-3.6,1.2-5.4,1.8c3.8,7,6,14.8,6,22.9c0,8.2-2.1,15.9-6,22.9c9.7,3.7,21.7,5.9,34.8,5.9
		c11.4,0,22.1-1.7,31-4.6C433.8,100.7,412,82.8,386.1,75.1"/>
	<path class="st1" d="M386.7,85.5c0-15.2-2.7-0.9-7.5-14.4H277.5c-24.6,0-39.5,19.6-44.5,44.5l-19.2,92c13.5,4.8,28,7.5,43.2,7.5
		C328.6,215.1,386.7,157.1,386.7,85.5"/>
	<path class="st4" d="M367.2,302.2c25.4,2.2,49.2,10.1,70.3,22.4c26.8-10.8,41.9-23.8,41.9-23.8l-12.8-185.4
		c-2.4-23.4-19.9-44.3-44.3-44.3h-62.8L253.7,90.2l-17.5,210.6c13.1,7.8,25.9,14.2,38.3,19.4C301.9,306.2,333.7,299.3,367.2,302.2"
		/>
	<path class="st5" d="M437.6,324.6c-21.1-12.3-45-20.3-70.3-22.4c-33.6-2.9-65.3,4-92.8,18C344.8,349.6,401.7,339.1,437.6,324.6"/>
	<path class="st6" d="M380.7,122.8c-11.1,20.4-36.5,34.7-66.1,34.7c-20.5,0-39-6.9-52.1-17.9c-2,5.8-3.4,11.8-4.3,17.9
		c-0.7,4.7-1.1,9.5-1.1,14.4v28.8c0,55.7,45.1,100.8,100.8,100.8c4.9,0,9.7-0.5,14.4-1.1c48.8-7,86.4-48.9,86.4-99.7h0.1v-28.8h-0.1
		c0-2.9-0.1-5.9-0.3-8.9c-1.2-13.9-5.4-27.1-11.8-38.9c-9,2.9-19.6,4.6-31,4.6C402.4,128.7,390.4,126.5,380.7,122.8"/>
	<path class="st4" d="M386.1,75.1c-1.9,0.6-3.6,1.2-5.4,1.8c3.8,7,6,14.8,6,22.9c0,8.2-2.1,15.9-6,22.9c9.7,3.7,21.7,5.9,34.8,5.9
		c11.4,0,22.1-1.7,31-4.6C433.8,100.7,412,82.8,386.1,75.1"/>
	<path class="st7" d="M370.9,199.5c-0.4-15,11.5-27.5,26.5-27.9c15-0.4,27.5,11.5,27.9,26.5l-7.4,0.2c-0.3-10.9-9.4-19.6-20.3-19.3
		c-5.3,0.1-10.2,2.3-13.9,6.2c-3.6,3.8-5.6,8.9-5.4,14.2L370.9,199.5z"/>
	<path class="st7" d="M277.7,201.9c-0.2-7.3,2.5-14.2,7.5-19.4c5-5.3,11.7-8.3,19-8.5c7.3-0.2,14.2,2.5,19.4,7.5
		c5.3,5,8.3,11.7,8.5,19l-7.4,0.2c-0.1-5.3-2.3-10.2-6.2-13.9c-3.8-3.6-8.9-5.6-14.2-5.4c-5.3,0.1-10.2,2.3-13.9,6.2
		c-3.6,3.8-5.6,8.9-5.4,14.2L277.7,201.9z"/>
	<path class="st4" d="M386.7,85.5c0-15.2-2.7-0.9-7.5-14.4H277.5c-24.6,0-39.5,19.6-44.5,44.5l-19.2,92c13.5,4.8,28,7.5,43.2,7.5
		C328.6,215.1,386.7,157.1,386.7,85.5"/>
	<path class="st8" d="M492.7,585.8l2.8-206.6c-7.2-10.8-15.7-20.7-25-29.7c-4.9-4.6-9.9-9.1-15.2-13.2c-5.6-4.3-11.6-8.1-17.7-11.7
		c-35.8,14.4-92.7,25-163.1-4.4c-9.1,4.7-17.8,10.1-25.9,16.3c-5.9,4.5-11.4,9.5-16.7,14.7c-9.2,9-17.5,19-24.4,29.9l2.7,204.7
		H492.7z"/>
</g>
<g id="Layer_3">
</g>
<g id="Layer_2">
	<g>
		<defs>
			<rect id="SVGID_1_" width="705" height="471"/>
		</defs>
		<clipPath id="SVGID_00000088102055800382551900000004945052916606939569_">
			<use xlink:href="#SVGID_1_"  style="overflow:visible;"/>
		</clipPath>
		<g style="clip-path:url(#SVGID_00000088102055800382551900000004945052916606939569_);">
			<circle class="st10" cx="352.5" cy="322.5" r="322.5"/>
			<g>
				<g class="st11">
					<path d="M361.1,216.6c-6.5,1.4-11.7-5.6-10-12c5-18.7,4.8-38.4-0.7-57l-8.3-28.4c-3.8-13.1-12.2-26.6-31.8-23.1
						c-19.6,3.5-19.3,23.8-15.5,36.9l1.7,5.4c3.7,12.7,2.3,26.3-4.1,37.9l-44.3,81.7c-9.8,17.8-12.2,38.6-6.6,58.1l5.8,20.5
						l-22.3,44.6l147.8,81.1l15.5-33.1l0.2,0.1l30.9-56.3l-0.2-0.1l8.2-14.9l24.5-11.7l66.4-115.8L361.1,216.6z"/>
				</g>
				<g>
					<g>
						<path class="st12" d="M354.1,209.6c-6.5,1.4-11.7-5.6-10-12c5-18.7,4.8-38.4-0.7-57l-8.3-28.4C331.3,99.1,323,85.5,303.4,89
							c-19.6,3.5-19.3,23.8-15.5,36.9l1.7,5.4c3.7,12.7,2.3,26.3-4.1,37.9l-44.3,81.7c-9.8,17.8-12.2,38.6-6.6,58.1l5.8,20.5
							l-22.3,44.6l147.8,81.1l15.5-33.1l0.2,0.1l30.9-56.3l-0.2-0.1l8.2-14.9l24.5-11.7l66.4-115.8L354.1,209.6z"/>
					</g>
				</g>
			</g>
			<g>
				<defs>
					<path id="SVGID_00000134220435121239729180000003992695569780897935_" d="M303.4,89c-19.6,3.5-19.3,23.8-15.5,36.9l1.7,5.5
						c3.7,12.7,2.3,26.3-4.1,37.9l-44.3,81.7c-9.8,17.8-12.2,38.6-6.6,58.1l5.8,20.5l-22.3,44.6l147.8,81.1l15.5-33.1l0.2,0.1
						l30.9-56.3l-0.2-0.1l8.2-14.9l24.5-11.7l66.4-115.8l-157.2-13.8c-6.5,1.4-11.7-5.6-10-12c5-18.7,4.8-38.4-0.7-57l-8.3-28.4
						c-3.4-11.6-10.4-23.7-25.8-23.7C307.4,88.5,305.5,88.6,303.4,89"/>
				</defs>
				<clipPath id="SVGID_00000157270910668788105320000006501508300106561946_">
					<use xlink:href="#SVGID_00000134220435121239729180000003992695569780897935_"  style="overflow:visible;"/>
				</clipPath>
			</g>
			<g>
				<g class="st11">
					<g>
						<defs>
							<path id="SVGID_00000096051392917134834920000015534252434050792120_" d="M427.2,31.6c-13.7,0-27,7-34.5,19.4l-0.2,0.3
								l-0.8,1.4l-11.9,22.1l-80.8,150.4l-22.6,42c-10.5,19.5-3.1,43.9,16.4,54.4l88.5,47.5c19.5,10.5,43.9,3.1,54.4-16.4
								l103.4-192.4l11.9-22.1c10.5-19.5,3.1-43.9-16.4-54.4l-2.2-1.2l-9.5,17.7l2.2,1.2c1.1,0.6,2,1.3,3,2h0
								c0.3,0.3,0.6,0.5,0.9,0.8c0,0,0,0,0,0c0.3,0.3,0.5,0.5,0.8,0.8c0.5,0.5,1,0.9,1.4,1.5c0.7,0.9,1.3,1.9,1.9,2.9
								c0.1,0.2,0.2,0.4,0.3,0.6c0.5,1,0.9,2,1.3,3.1c0.1,0.2,0.1,0.3,0.1,0.5c0.3,1,0.5,2,0.6,3c0,0.2,0.1,0.4,0.1,0.5
								c0.1,1.1,0.1,2.3,0,3.4c0,0.2-0.1,0.5-0.1,0.7c-0.1,1.2-0.3,2.3-0.7,3.5c-0.4,1.3-0.9,2.5-1.6,3.8l-11.9,22.1l-10.7,19.9
								l-80.8,150.4L418,343.3c-0.1,0.2-0.2,0.3-0.3,0.5c-0.6,1-1.2,2-2,2.9c-0.1,0.1-0.2,0.2-0.3,0.3c-0.8,0.9-1.6,1.7-2.5,2.4
								c-0.1,0-0.1,0.1-0.2,0.1c-1,0.8-2,1.5-3.1,2c0,0,0,0-0.1,0c-1.1,0.6-2.3,1.1-3.5,1.4c0,0,0,0,0,0c0,0-0.1,0-0.2,0
								c-1.2,0.3-2.4,0.6-3.6,0.7c-0.2,0-0.4,0-0.6,0c-0.2,0-0.3,0-0.5,0c0,0,0,0-0.1,0c-0.9,0-1.8,0.1-2.8,0l0,0
								c-0.4,0-0.8-0.1-1.2-0.2c-2.2-0.3-4.3-1-6.4-2.1L302.4,304c-4.9-2.6-8.2-7-9.7-11.9c0-0.1,0-0.2-0.1-0.4
								c-0.7-2.4-0.9-4.8-0.7-7.3c0.1-1.3,0.4-2.6,0.8-3.9c0.4-1.3,0.9-2.5,1.6-3.8l11.9-22.1l10.7-19.9l80.8-150.4l11.9-22.1
								c2.6-4.9,7-8.3,12-9.7l0,0c0,0,0,0,0,0c0.1,0,0.1,0,0.2,0c1.2-0.3,2.3-0.6,3.5-0.7c0.1,0,0.3,0,0.4,0c0.1,0,0.2,0,0.3,0
								c0.1,0,0.2,0,0.4,0c0.9,0,1.8-0.1,2.8,0c0,0,0,0,0,0c0.2,0,0.4,0.1,0.6,0.1c0.4,0.1,0.8,0.2,1.3,0.2c0.7,0.1,1.3,0.2,2,0.4
								l0,0c0.7,0.2,1.4,0.6,2.1,0.9c0.6,0.2,1.1,0.4,1.7,0.7l2.2,1.2l9.5-17.7l-2.2-1.2c-6-3.2-12.5-4.8-18.9-4.8H427.2z"/>
						</defs>
						<clipPath id="SVGID_00000181055066310332586530000008043168732009051820_">
							<use xlink:href="#SVGID_00000096051392917134834920000015534252434050792120_"  style="overflow:visible;"/>
						</clipPath>
					</g>
					<polygon points="421.1,43.2 539.1,103.5 543.3,125.7 418.2,364.1 395.5,363.2 354,349 283.3,300.8 278.8,277 402.9,46.6 					
						"/>
					<path d="M535.5,121.5c-0.3,2.5-1,4.9-2.2,7.2l-11.9,22.1L418,343.3c-0.1,0.2-0.2,0.3-0.3,0.5c0.1-0.2,0.2-0.3,0.3-0.5
						l11.9-22.1l80.8-150.4l10.7-19.9l11.9-22.1c0.7-1.2,1.2-2.5,1.6-3.8C535.2,123.9,535.4,122.7,535.5,121.5"/>
					<path d="M534.9,113.8c0.3,1,0.5,2,0.6,3C535.4,115.9,535.2,114.8,534.9,113.8"/>
					<path d="M432.9,52.5c-0.6-0.2-1.3-0.3-2-0.4c-0.4-0.1-0.8-0.2-1.3-0.2C430.7,52,431.8,52.2,432.9,52.5
						C432.9,52.5,432.9,52.5,432.9,52.5"/>
					<path d="M316.8,234.7l80.8-150.4l11.9-22.1c0,0,0-0.1,0.1-0.1c2.6-4.9,7-8.2,11.9-9.7l0,0c-4.9,1.5-9.3,4.8-12,9.7l-11.9,22.1
						L316.8,234.7l-10.7,19.9l-11.9,22.1c-0.7,1.2-1.2,2.5-1.6,3.8c-0.4,1.3-0.6,2.6-0.8,3.9c0.2-2.6,1-5.2,2.3-7.6L316.8,234.7z"/>
					<path d="M425.2,51.8c-1.2,0.1-2.4,0.4-3.5,0.7c-0.1,0-0.1,0-0.2,0C422.7,52.1,423.9,51.9,425.2,51.8"/>
					<path d="M533.5,110.2c0.5,1,0.9,2,1.3,3.1C534.4,112.3,534,111.2,533.5,110.2"/>
					<path d="M535.6,117.4c0.1,1.1,0.1,2.3,0,3.4C535.7,119.7,535.7,118.6,535.6,117.4"/>
					<path d="M528.1,103.6c-0.9-0.7-1.9-1.4-3-2C526.2,102.2,527.2,102.8,528.1,103.6L528.1,103.6z"/>
					<path d="M529,104.4C529,104.4,529,104.4,529,104.4c0.3,0.3,0.5,0.5,0.8,0.8C529.6,104.9,529.3,104.7,529,104.4"/>
					<path d="M534.6,83.9l-2.2-1.2l-9.5,17.7l2.2,1.2c1.1,0.6,2.1,1.3,3,2h0c0.3,0.3,0.6,0.5,0.9,0.8c0,0,0,0,0,0
						c0.3,0.3,0.5,0.5,0.8,0.8c0.5,0.5,1,0.9,1.4,1.5c0.7,0.9,1.3,1.9,1.9,2.9c0.1,0.2,0.2,0.4,0.3,0.6c0.5,1,0.9,2,1.3,3.1
						c0.1,0.2,0.1,0.3,0.1,0.5c0.3,1,0.5,2,0.6,3c0,0.2,0.1,0.4,0.1,0.5c0.1,1.1,0.1,2.3,0,3.4c0,0.2-0.1,0.5-0.1,0.7
						c-0.1,1.2-0.3,2.3-0.7,3.5c-0.4,1.3-0.9,2.5-1.6,3.8l-11.9,22.1l-10.7,19.9l-80.8,150.4L418,343.3c-0.1,0.2-0.2,0.3-0.3,0.5
						c-0.6,1-1.2,2-2,2.9c-0.1,0.1-0.2,0.2-0.3,0.3c-0.8,0.9-1.6,1.7-2.5,2.4c-0.1,0-0.1,0.1-0.2,0.1c-1,0.8-2,1.5-3.1,2
						c0,0,0,0-0.1,0c-1.1,0.6-2.3,1.1-3.5,1.4c0,0,0,0,0,0c0,0-0.1,0-0.2,0c-1.2,0.3-2.4,0.6-3.6,0.7c-0.3,0-0.7,0-1.1,0
						c0,0,0,0-0.1,0c-0.9,0-1.8,0.1-2.8,0l0,0c-0.4,0-0.8-0.1-1.2-0.2c-2.2-0.3-4.3-1-6.4-2.1L302.4,304c-4.9-2.6-8.2-7-9.7-11.9
						c0-0.1,0-0.2-0.1-0.4c-0.7-2.4-0.9-4.8-0.7-7.3c0.1-1.3,0.4-2.6,0.8-3.9c0.4-1.3,0.9-2.5,1.6-3.8l11.9-22.1l10.7-19.9
						l80.8-150.4l11.9-22.1c2.6-4.9,7-8.3,12-9.7l0,0c0,0,0,0,0,0c0.1,0,0.1,0,0.2,0c1.1-0.3,2.3-0.6,3.5-0.7c0.2,0,0.5,0,0.7,0
						c0.1,0,0.2,0,0.4,0c0.9,0,1.8-0.1,2.8,0c0,0,0,0,0,0c0.2,0,0.4,0.1,0.6,0.1c0.4,0.1,0.8,0.2,1.3,0.2c0.7,0.1,1.3,0.2,2,0.4l0,0
						c0.7,0.2,1.4,0.6,2.1,0.9c0.6,0.2,1.1,0.4,1.7,0.7l2.2,1.2l9.5-17.7l-2.2-1.2c-18.9-10.2-42.5-3.5-53.4,14.7l-0.2,0.3l-0.8,1.4
						l-11.9,22.1l-80.8,150.4l-22.6,42c-10.5,19.5-3.1,43.9,16.4,54.4l88.5,47.5c19.5,10.5,43.9,3.1,54.4-16.4l103.4-192.4
						l11.9-22.1C561.5,118.8,554.1,94.4,534.6,83.9"/>
					<path d="M531.5,107.1c-0.1-0.1-0.2-0.3-0.3-0.4c-0.2-0.2-0.5-0.4-0.7-0.7C530.9,106.3,531.2,106.7,531.5,107.1"/>
					<path d="M448.1,85.8l44.2,23.8c11,5.9,24.7,1.8,30.6-9.2l-84-45.2C433,66.2,437.1,79.9,448.1,85.8"/>
					<polygon points="522.9,100.4 532.4,82.7 523,77.6 514.7,73.2 466.1,47 448.4,37.5 438.9,55.2 					"/>
					<path d="M292.3,296L292.3,296c0-0.1,0-0.2-0.1-0.4C292.3,295.7,292.3,295.9,292.3,296"/>
					<rect x="458.9" y="126.6" transform="matrix(0.4695 -0.883 0.883 0.4695 111.9001 497.0554)" width="21.3" height="57.5"/>
					<rect x="457.3" y="143.5" transform="matrix(0.4695 -0.8829 0.8829 0.4695 92.3016 498.0698)" width="6.7" height="57.5"/>
					<rect x="337.6" y="270.2" transform="matrix(0.4695 -0.883 0.883 0.4695 -62.7565 456.192)" width="21.3" height="20.2"/>
					<rect x="389.8" y="291.1" transform="matrix(0.4695 -0.883 0.883 0.4695 -59.5704 516.9846)" width="21.3" height="34"/>
					<rect x="351.2" y="166.6" transform="matrix(0.4695 -0.8829 0.8829 0.4695 19.5258 474.356)" width="106.5" height="108.6"/>
					<polygon points="427.4,293.4 435.1,279.1 425.1,226.7 367.8,251.5 364.5,219 337.9,230.5 331.5,242.4 					"/>
					<path d="M389.6,198.5c5.8,3.1,13.1,0.9,16.2-5c3.1-5.8,0.9-13.1-5-16.2c-5.8-3.1-13.1-0.9-16.2,5
						C381.5,188.2,383.7,195.4,389.6,198.5"/>
					<path d="M334.7,266.4c-1.4-0.8-3.1-0.7-4.4,0c-0.1-1.5-1-2.9-2.4-3.6c-2.3-1.2-5-0.3-6.2,1.9c-0.4,0.8-0.6,1.6-0.5,2.4
						c0,0.5,0.1,1,0.3,1.5l0.3,0.6l0.8,1.6l2.5,5.2l0.1,0.2l7.7-1.1l0.7-0.1c0.5-0.1,1-0.3,1.4-0.6c0.7-0.4,1.3-1,1.7-1.8
						C337.8,270.4,337,267.6,334.7,266.4"/>
					<polygon points="371.3,285.8 369.9,288.4 367.8,292.4 366.4,295.1 365.1,297.4 369.8,296.9 371,297.5 379.1,301.8 380.5,299.2 
						381.5,297.2 382.6,295.2 384,292.6 					"/>
					<rect x="455.1" y="57.1" transform="matrix(0.4694 -0.883 0.883 0.4694 146.7251 468.2118)" width="15.8" height="109.8"/>
					<path d="M534.6,83.9l-2.2-1.2l-9.5,17.7l2.2,1.2c1.1,0.6,2.1,1.3,3,2h0c0.3,0.3,0.6,0.5,0.9,0.8c0,0,0,0,0,0
						c0.3,0.3,0.5,0.5,0.8,0.8c0.5,0.5,1,0.9,1.4,1.5c0.7,0.9,1.3,1.9,1.9,2.9c0.1,0.2,0.2,0.4,0.3,0.6c0.5,1,0.9,2,1.3,3.1
						c0.1,0.2,0.1,0.3,0.1,0.5c0.3,1,0.5,2,0.6,3c0,0.2,0.1,0.4,0.1,0.5c0.1,1.1,0.1,2.3,0,3.4c0,0.2-0.1,0.5-0.1,0.7
						c-0.1,1.2-0.3,2.3-0.7,3.5c-0.4,1.3-0.9,2.5-1.6,3.8l-11.9,22.1l-10.7,19.9l-80.8,150.4L418,343.3c-0.1,0.2-0.2,0.3-0.3,0.5
						c-0.6,1-1.2,2-2,2.9c-0.1,0.1-0.2,0.2-0.3,0.3c-0.8,0.9-1.6,1.7-2.5,2.4c-0.1,0-0.1,0.1-0.2,0.1c-1,0.8-2,1.5-3.1,2
						c0,0,0,0-0.1,0c-1.1,0.6-2.3,1.1-3.5,1.4c0,0,0,0,0,0c0,0-0.1,0-0.2,0c-1.2,0.3-2.4,0.6-3.6,0.7c-0.3,0-0.7,0-1.1,0
						c0,0,0,0-0.1,0c-0.9,0-1.8,0.1-2.8,0l0,0c-0.4,0-0.8-0.1-1.2-0.2c-2.2-0.3-4.3-1-6.4-2.1L302.4,304c-4.9-2.6-8.2-7-9.7-11.9
						c0-0.1,0-0.2-0.1-0.4c-0.7-2.4-0.9-4.8-0.7-7.3c0.1-1.3,0.4-2.6,0.8-3.9c0.4-1.3,0.9-2.5,1.6-3.8l11.9-22.1l10.7-19.9
						l80.8-150.4l11.9-22.1c2.6-4.9,7-8.3,12-9.7l0,0c0,0,0,0,0,0c0.1,0,0.1,0,0.2,0c1.1-0.3,2.3-0.6,3.5-0.7c0.2,0,0.5,0,0.7,0
						c0.1,0,0.2,0,0.4,0c0.9,0,1.8-0.1,2.8,0c0,0,0,0,0,0c0.2,0,0.4,0.1,0.6,0.1c0.4,0.1,0.8,0.2,1.3,0.2c0.7,0.1,1.3,0.2,2,0.4l0,0
						c0.7,0.2,1.4,0.6,2.1,0.9c0.6,0.2,1.1,0.4,1.7,0.7l2.2,1.2l9.5-17.7l-2.2-1.2c-18.9-10.2-42.5-3.5-53.4,14.7l-0.2,0.3l-0.8,1.4
						l-11.9,22.1l-80.8,150.4l-22.6,42c-10.5,19.5-3.1,43.9,16.4,54.4l88.5,47.5c19.5,10.5,43.9,3.1,54.4-16.4l103.4-192.4
						l11.9-22.1C561.5,118.8,554.1,94.4,534.6,83.9"/>
					<g>
						<defs>
							<path id="SVGID_00000057130585689744318110000004748278780568182944_" d="M427.2,31.6c-13.7,0-27,7-34.5,19.4l-0.2,0.3
								l-0.8,1.4l-11.9,22.1l-80.8,150.4l-22.6,42c-10.5,19.5-3.1,43.9,16.4,54.4l88.5,47.5c19.5,10.5,43.9,3.1,54.4-16.4
								l103.4-192.4l11.9-22.1c10.5-19.5,3.1-43.9-16.4-54.4l-2.2-1.2l-9.5,17.7l2.2,1.2c1.1,0.6,2,1.3,3,2h0
								c0.3,0.3,0.6,0.5,0.9,0.8c0,0,0,0,0,0c0.3,0.3,0.5,0.5,0.8,0.8c0.5,0.5,1,0.9,1.4,1.5c0.7,0.9,1.3,1.9,1.9,2.9
								c0.1,0.2,0.2,0.4,0.3,0.6c0.5,1,0.9,2,1.3,3.1c0.1,0.2,0.1,0.3,0.1,0.5c0.3,1,0.5,2,0.6,3c0,0.2,0.1,0.4,0.1,0.5
								c0.1,1.1,0.1,2.3,0,3.4c0,0.2-0.1,0.5-0.1,0.7c-0.1,1.2-0.3,2.3-0.7,3.5c-0.4,1.3-0.9,2.5-1.6,3.8l-11.9,22.1l-10.7,19.9
								l-80.8,150.4L418,343.3c-0.1,0.2-0.2,0.3-0.3,0.5c-0.6,1-1.2,2-2,2.9c-0.1,0.1-0.2,0.2-0.3,0.3c-0.8,0.9-1.6,1.7-2.5,2.4
								c-0.1,0-0.1,0.1-0.2,0.1c-1,0.8-2,1.5-3.1,2c0,0,0,0-0.1,0c-1.1,0.6-2.3,1.1-3.5,1.4c0,0,0,0,0,0c0,0-0.1,0-0.2,0
								c-1.2,0.3-2.4,0.6-3.6,0.7c-0.2,0-0.4,0-0.6,0c-0.2,0-0.3,0-0.5,0c0,0,0,0-0.1,0c-0.9,0-1.8,0.1-2.8,0l0,0
								c-0.4,0-0.8-0.1-1.2-0.2c-2.2-0.3-4.3-1-6.4-2.1L302.4,304c-4.9-2.6-8.2-7-9.7-11.9c0-0.1,0-0.2-0.1-0.4
								c-0.7-2.4-0.9-4.8-0.7-7.3c0.1-1.3,0.4-2.6,0.8-3.9c0.4-1.3,0.9-2.5,1.6-3.8l11.9-22.1l10.7-19.9l80.8-150.4l11.9-22.1
								c2.6-4.9,7-8.3,12-9.7l0,0c0,0,0,0,0,0c0.1,0,0.1,0,0.2,0c1.2-0.3,2.3-0.6,3.5-0.7c0.1,0,0.3,0,0.4,0c0.1,0,0.2,0,0.3,0
								c0.1,0,0.2,0,0.4,0c0.9,0,1.8-0.1,2.8,0c0,0,0,0,0,0c0.2,0,0.4,0.1,0.6,0.1c0.4,0.1,0.8,0.2,1.3,0.2c0.7,0.1,1.3,0.2,2,0.4
								l0,0c0.7,0.2,1.4,0.6,2.1,0.9c0.6,0.2,1.1,0.4,1.7,0.7l2.2,1.2l9.5-17.7l-2.2-1.2c-6-3.2-12.5-4.8-18.9-4.8H427.2z"/>
						</defs>
						<clipPath id="SVGID_00000075851865442969388050000009048130535250430606_">
							<use xlink:href="#SVGID_00000057130585689744318110000004748278780568182944_"  style="overflow:visible;"/>
						</clipPath>
					</g>
					<g>
						<defs>
							<path id="SVGID_00000080169833675229589440000005483044292277723291_" d="M427.2,31.6c-13.7,0-27,7-34.5,19.4l-0.2,0.3
								l-0.8,1.4l-11.9,22.1l-80.8,150.4l-22.6,42c-10.5,19.5-3.1,43.9,16.4,54.4l88.5,47.5c19.5,10.5,43.9,3.1,54.4-16.4
								l103.4-192.4l11.9-22.1c10.5-19.5,3.1-43.9-16.4-54.4l-2.2-1.2l-9.5,17.7l2.2,1.2c1.1,0.6,2,1.3,3,2h0
								c0.3,0.3,0.6,0.5,0.9,0.8c0,0,0,0,0,0c0.3,0.3,0.5,0.5,0.8,0.8c0.5,0.5,1,0.9,1.4,1.5c0.7,0.9,1.3,1.9,1.9,2.9
								c0.1,0.2,0.2,0.4,0.3,0.6c0.5,1,0.9,2,1.3,3.1c0.1,0.2,0.1,0.3,0.1,0.5c0.3,1,0.5,2,0.6,3c0,0.2,0.1,0.4,0.1,0.5
								c0.1,1.1,0.1,2.3,0,3.4c0,0.2-0.1,0.5-0.1,0.7c-0.1,1.2-0.3,2.3-0.7,3.5c-0.4,1.3-0.9,2.5-1.6,3.8l-11.9,22.1l-10.7,19.9
								l-80.8,150.4L418,343.3c-0.1,0.2-0.2,0.3-0.3,0.5c-0.6,1-1.2,2-2,2.9c-0.1,0.1-0.2,0.2-0.3,0.3c-0.8,0.9-1.6,1.7-2.5,2.4
								c-0.1,0-0.1,0.1-0.2,0.1c-1,0.8-2,1.5-3.1,2c0,0,0,0-0.1,0c-1.1,0.6-2.3,1.1-3.5,1.4c0,0,0,0,0,0c0,0-0.1,0-0.2,0
								c-1.2,0.3-2.4,0.6-3.6,0.7c-0.2,0-0.4,0-0.6,0c-0.2,0-0.3,0-0.5,0c0,0,0,0-0.1,0c-0.9,0-1.8,0.1-2.8,0l0,0
								c-0.4,0-0.8-0.1-1.2-0.2c-2.2-0.3-4.3-1-6.4-2.1L302.4,304c-4.9-2.6-8.2-7-9.7-11.9c0-0.1,0-0.2-0.1-0.4
								c-0.7-2.4-0.9-4.8-0.7-7.3c0.1-1.3,0.4-2.6,0.8-3.9c0.4-1.3,0.9-2.5,1.6-3.8l11.9-22.1l10.7-19.9l80.8-150.4l11.9-22.1
								c2.6-4.9,7-8.3,12-9.7l0,0c0,0,0,0,0,0c0.1,0,0.1,0,0.2,0c1.2-0.3,2.3-0.6,3.5-0.7c0.1,0,0.3,0,0.4,0c0.1,0,0.2,0,0.3,0
								c0.1,0,0.2,0,0.4,0c0.9,0,1.8-0.1,2.8,0c0,0,0,0,0,0c0.2,0,0.4,0.1,0.6,0.1c0.4,0.1,0.8,0.2,1.3,0.2c0.7,0.1,1.3,0.2,2,0.4
								l0,0c0.7,0.2,1.4,0.6,2.1,0.9c0.6,0.2,1.1,0.4,1.7,0.7l2.2,1.2l9.5-17.7l-2.2-1.2c-6-3.2-12.5-4.8-18.9-4.8H427.2z"/>
						</defs>
						<clipPath id="SVGID_00000009583367150611695350000012854327486308155069_">
							<use xlink:href="#SVGID_00000080169833675229589440000005483044292277723291_"  style="overflow:visible;"/>
						</clipPath>
					</g>
				</g>
				<g>
					<g>
						<g>
							<defs>
								<path id="SVGID_00000014593196252993504650000014727824642840172437_" d="M420.2,24.6c-13.7,0-27,7-34.5,19.4l-0.2,0.3
									l-0.8,1.4l-11.9,22.1l-80.8,150.4l-22.6,42c-10.5,19.5-3.1,43.9,16.4,54.4l88.5,47.5c19.5,10.5,43.9,3.1,54.4-16.4
									l103.4-192.4l11.9-22.1c10.5-19.5,3.1-43.9-16.4-54.4l-2.2-1.2l-9.5,17.7l2.2,1.2c1.1,0.6,2,1.3,3,2h0
									c0.3,0.3,0.6,0.5,0.9,0.8c0,0,0,0,0,0c0.3,0.3,0.5,0.5,0.8,0.8c0.5,0.5,1,0.9,1.4,1.5c0.7,0.9,1.3,1.9,1.9,2.9
									c0.1,0.2,0.2,0.4,0.3,0.6c0.5,1,0.9,2,1.3,3.1c0.1,0.2,0.1,0.3,0.1,0.5c0.3,1,0.5,2,0.6,3c0,0.2,0.1,0.4,0.1,0.5
									c0.1,1.1,0.1,2.3,0,3.4c0,0.2-0.1,0.5-0.1,0.7c-0.1,1.2-0.3,2.3-0.7,3.5c-0.4,1.3-0.9,2.5-1.6,3.8l-11.9,22.1l-10.7,19.9
									l-80.8,150.4L411,336.3c-0.1,0.2-0.2,0.3-0.3,0.5c-0.6,1-1.2,2-2,2.9c-0.1,0.1-0.2,0.2-0.3,0.3c-0.8,0.9-1.6,1.7-2.5,2.4
									c-0.1,0-0.1,0.1-0.2,0.1c-1,0.8-2,1.5-3.1,2c0,0,0,0-0.1,0c-1.1,0.6-2.3,1.1-3.5,1.4c0,0,0,0,0,0c0,0-0.1,0-0.2,0
									c-1.2,0.3-2.4,0.6-3.6,0.7c-0.2,0-0.4,0-0.6,0c-0.2,0-0.3,0-0.5,0c0,0,0,0-0.1,0c-0.9,0-1.8,0.1-2.8,0l0,0
									c-0.4,0-0.8-0.1-1.2-0.2c-2.2-0.3-4.3-1-6.4-2.1L295.4,297c-4.9-2.6-8.2-7-9.7-11.9c0-0.1,0-0.2-0.1-0.4
									c-0.7-2.4-0.9-4.8-0.7-7.3c0.1-1.3,0.4-2.6,0.8-3.9c0.4-1.3,0.9-2.5,1.6-3.8l11.9-22.1l10.7-19.9l80.8-150.4l11.9-22.1
									c2.6-4.9,7-8.3,12-9.7l0,0c0,0,0,0,0,0c0.1,0,0.1,0,0.2,0c1.2-0.3,2.3-0.6,3.5-0.7c0.1,0,0.3,0,0.4,0c0.1,0,0.2,0,0.3,0
									c0.1,0,0.2,0,0.4,0c0.9,0,1.8-0.1,2.8,0c0,0,0,0,0,0c0.2,0,0.4,0.1,0.6,0.1c0.4,0.1,0.8,0.2,1.3,0.2c0.7,0.1,1.3,0.2,2,0.4
									l0,0c0.7,0.2,1.4,0.6,2.1,0.9c0.6,0.2,1.1,0.4,1.7,0.7l2.2,1.2l9.5-17.7l-2.2-1.2c-6-3.2-12.5-4.8-18.9-4.8H420.2z"/>
							</defs>
							<clipPath id="SVGID_00000131365992758785614630000009490814680280557718_">
								<use xlink:href="#SVGID_00000014593196252993504650000014727824642840172437_"  style="overflow:visible;"/>
							</clipPath>
						</g>
					</g>
					<g>
						<polygon class="st13" points="414.1,36.2 532.1,96.5 536.3,118.7 411.2,357.1 388.5,356.2 347,342 276.3,293.8 271.8,270 
							395.9,39.6 						"/>
						<g>
							<path class="st14" d="M528.5,114.5c-0.3,2.5-1,4.9-2.2,7.2l-11.9,22.1L411,336.3c-0.1,0.2-0.2,0.3-0.3,0.5
								c0.1-0.2,0.2-0.3,0.3-0.5l11.9-22.1l80.8-150.4l10.7-19.9l11.9-22.1c0.7-1.2,1.2-2.5,1.6-3.8
								C528.2,116.9,528.4,115.7,528.5,114.5"/>
							<path class="st14" d="M527.9,106.8c0.3,1,0.5,2,0.6,3C528.4,108.9,528.2,107.8,527.9,106.8"/>
							<path class="st14" d="M425.9,45.5c-0.6-0.2-1.3-0.3-2-0.4c-0.4-0.1-0.8-0.2-1.3-0.2C423.7,45,424.8,45.2,425.9,45.5
								C425.9,45.5,425.9,45.5,425.9,45.5"/>
							<path class="st14" d="M309.8,227.7l80.8-150.4l11.9-22.1c0,0,0-0.1,0.1-0.1c2.6-4.9,7-8.2,11.9-9.7l0,0
								c-4.9,1.5-9.3,4.8-12,9.7l-11.9,22.1L309.8,227.7l-10.7,19.9l-11.9,22.1c-0.7,1.2-1.2,2.5-1.6,3.8c-0.4,1.3-0.6,2.6-0.8,3.9
								c0.2-2.6,1-5.2,2.3-7.6L309.8,227.7z"/>
							<path class="st14" d="M418.2,44.8c-1.2,0.1-2.4,0.4-3.5,0.7c-0.1,0-0.1,0-0.2,0C415.7,45.1,416.9,44.9,418.2,44.8"/>
							<path class="st14" d="M526.5,103.2c0.5,1,0.9,2,1.3,3.1C527.4,105.3,527,104.2,526.5,103.2"/>
							<path class="st14" d="M528.6,110.4c0.1,1.1,0.1,2.3,0,3.4C528.7,112.7,528.7,111.6,528.6,110.4"/>
							<path class="st15" d="M521.1,96.6c-0.9-0.7-1.9-1.4-3-2C519.2,95.2,520.2,95.8,521.1,96.6L521.1,96.6z"/>
							<path class="st15" d="M522,97.4C522,97.4,522,97.4,522,97.4c0.3,0.3,0.5,0.5,0.8,0.8C522.6,97.9,522.3,97.7,522,97.4"/>
							<path class="st16" d="M527.6,76.9l-2.2-1.2l-9.5,17.7l2.2,1.2c1.1,0.6,2.1,1.3,3,2h0c0.3,0.3,0.6,0.5,0.9,0.8c0,0,0,0,0,0
								c0.3,0.3,0.5,0.5,0.8,0.8c0.5,0.5,1,0.9,1.4,1.5c0.7,0.9,1.3,1.9,1.9,2.9c0.1,0.2,0.2,0.4,0.3,0.6c0.5,1,0.9,2,1.3,3.1
								c0.1,0.2,0.1,0.3,0.1,0.5c0.3,1,0.5,2,0.6,3c0,0.2,0.1,0.4,0.1,0.5c0.1,1.1,0.1,2.3,0,3.4c0,0.2-0.1,0.5-0.1,0.7
								c-0.1,1.2-0.3,2.3-0.7,3.5c-0.4,1.3-0.9,2.5-1.6,3.8l-11.9,22.1l-10.7,19.9l-80.8,150.4L411,336.3c-0.1,0.2-0.2,0.3-0.3,0.5
								c-0.6,1-1.2,2-2,2.9c-0.1,0.1-0.2,0.2-0.3,0.3c-0.8,0.9-1.6,1.7-2.5,2.4c-0.1,0-0.1,0.1-0.2,0.1c-1,0.8-2,1.5-3.1,2
								c0,0,0,0-0.1,0c-1.1,0.6-2.3,1.1-3.5,1.4c0,0,0,0,0,0c0,0-0.1,0-0.2,0c-1.2,0.3-2.4,0.6-3.6,0.7c-0.3,0-0.7,0-1.1,0
								c0,0,0,0-0.1,0c-0.9,0-1.8,0.1-2.8,0l0,0c-0.4,0-0.8-0.1-1.2-0.2c-2.2-0.3-4.3-1-6.4-2.1L295.4,297c-4.9-2.6-8.2-7-9.7-11.9
								c0-0.1,0-0.2-0.1-0.4c-0.7-2.4-0.9-4.8-0.7-7.3c0.1-1.3,0.4-2.6,0.8-3.9c0.4-1.3,0.9-2.5,1.6-3.8l11.9-22.1l10.7-19.9
								l80.8-150.4l11.9-22.1c2.6-4.9,7-8.3,12-9.7l0,0c0,0,0,0,0,0c0.1,0,0.1,0,0.2,0c1.1-0.3,2.3-0.6,3.5-0.7c0.2,0,0.5,0,0.7,0
								c0.1,0,0.2,0,0.4,0c0.9,0,1.8-0.1,2.8,0c0,0,0,0,0,0c0.2,0,0.4,0.1,0.6,0.1c0.4,0.1,0.8,0.2,1.3,0.2c0.7,0.1,1.3,0.2,2,0.4
								l0,0c0.7,0.2,1.4,0.6,2.1,0.9c0.6,0.2,1.1,0.4,1.7,0.7l2.2,1.2l9.5-17.7l-2.2-1.2c-18.9-10.2-42.5-3.5-53.4,14.7l-0.2,0.3
								l-0.8,1.4l-11.9,22.1l-80.8,150.4l-22.6,42c-10.5,19.5-3.1,43.9,16.4,54.4l88.5,47.5c19.5,10.5,43.9,3.1,54.4-16.4
								l103.4-192.4l11.9-22.1C554.5,111.8,547.1,87.4,527.6,76.9"/>
							<path class="st14" d="M524.5,100.1c-0.1-0.1-0.2-0.3-0.3-0.4c-0.2-0.2-0.5-0.4-0.7-0.7C523.9,99.3,524.2,99.7,524.5,100.1"/>
							<path class="st14" d="M441.1,78.8l44.2,23.8c11,5.9,24.7,1.8,30.6-9.2l-84-45.2C426,59.2,430.1,72.9,441.1,78.8"/>
						</g>
						<polygon class="st17" points="515.9,93.4 525.4,75.7 516,70.6 507.7,66.2 459.1,40 441.4,30.5 431.9,48.2 						"/>
						<g>
							<path class="st14" d="M285.3,289L285.3,289c0-0.1,0-0.2-0.1-0.4C285.3,288.7,285.3,288.9,285.3,289"/>
						</g>
						
							<rect x="451.9" y="119.6" transform="matrix(0.4695 -0.883 0.883 0.4695 114.3671 487.161)" class="st18" width="21.3" height="57.5"/>
						
							<rect x="450.3" y="136.5" transform="matrix(0.4695 -0.8829 0.8829 0.4695 94.7686 488.1757)" class="st18" width="6.7" height="57.5"/>
						
							<rect x="330.6" y="263.2" transform="matrix(0.4695 -0.883 0.883 0.4695 -60.2896 446.2977)" class="st18" width="21.3" height="20.2"/>
						
							<rect x="382.8" y="284.1" transform="matrix(0.4695 -0.883 0.883 0.4695 -57.1035 507.0902)" class="st18" width="21.3" height="34"/>
						
							<rect x="344.2" y="159.6" transform="matrix(0.4695 -0.8829 0.8829 0.4695 21.9927 464.4616)" class="st19" width="106.5" height="108.6"/>
						<polygon class="st20" points="420.4,286.4 428.1,272.1 418.1,219.7 360.8,244.5 357.5,212 330.9,223.5 324.5,235.4 						"/>
						<g>
							<path class="st21" d="M382.6,191.5c5.8,3.1,13.1,0.9,16.2-5c3.1-5.8,0.9-13.1-5-16.2c-5.8-3.1-13.1-0.9-16.2,5
								C374.5,181.2,376.7,188.4,382.6,191.5"/>
							<path class="st22" d="M327.7,259.4c-1.4-0.8-3.1-0.7-4.4,0c-0.1-1.5-1-2.9-2.4-3.6c-2.3-1.2-5-0.3-6.2,1.9
								c-0.4,0.8-0.6,1.6-0.5,2.4c0,0.5,0.1,1,0.3,1.5l0.3,0.6l0.8,1.6l2.5,5.2l0.1,0.2l7.7-1.1l0.7-0.1c0.5-0.1,1-0.3,1.4-0.6
								c0.7-0.4,1.3-1,1.7-1.8C330.8,263.4,330,260.6,327.7,259.4"/>
						</g>
						<polygon class="st23" points="364.3,278.8 362.9,281.4 360.8,285.4 359.4,288.1 358.1,290.4 362.8,289.9 364,290.5 
							372.1,294.8 373.5,292.2 374.5,290.2 375.6,288.2 377,285.6 						"/>
						
							<rect x="448.1" y="50.1" transform="matrix(0.4694 -0.883 0.883 0.4694 149.192 458.3172)" class="st18" width="15.8" height="109.8"/>
						<g>
							<path class="st16" d="M527.6,76.9l-2.2-1.2l-9.5,17.7l2.2,1.2c1.1,0.6,2.1,1.3,3,2h0c0.3,0.3,0.6,0.5,0.9,0.8c0,0,0,0,0,0
								c0.3,0.3,0.5,0.5,0.8,0.8c0.5,0.5,1,0.9,1.4,1.5c0.7,0.9,1.3,1.9,1.9,2.9c0.1,0.2,0.2,0.4,0.3,0.6c0.5,1,0.9,2,1.3,3.1
								c0.1,0.2,0.1,0.3,0.1,0.5c0.3,1,0.5,2,0.6,3c0,0.2,0.1,0.4,0.1,0.5c0.1,1.1,0.1,2.3,0,3.4c0,0.2-0.1,0.5-0.1,0.7
								c-0.1,1.2-0.3,2.3-0.7,3.5c-0.4,1.3-0.9,2.5-1.6,3.8l-11.9,22.1l-10.7,19.9l-80.8,150.4L411,336.3c-0.1,0.2-0.2,0.3-0.3,0.5
								c-0.6,1-1.2,2-2,2.9c-0.1,0.1-0.2,0.2-0.3,0.3c-0.8,0.9-1.6,1.7-2.5,2.4c-0.1,0-0.1,0.1-0.2,0.1c-1,0.8-2,1.5-3.1,2
								c0,0,0,0-0.1,0c-1.1,0.6-2.3,1.1-3.5,1.4c0,0,0,0,0,0c0,0-0.1,0-0.2,0c-1.2,0.3-2.4,0.6-3.6,0.7c-0.3,0-0.7,0-1.1,0
								c0,0,0,0-0.1,0c-0.9,0-1.8,0.1-2.8,0l0,0c-0.4,0-0.8-0.1-1.2-0.2c-2.2-0.3-4.3-1-6.4-2.1L295.4,297c-4.9-2.6-8.2-7-9.7-11.9
								c0-0.1,0-0.2-0.1-0.4c-0.7-2.4-0.9-4.8-0.7-7.3c0.1-1.3,0.4-2.6,0.8-3.9c0.4-1.3,0.9-2.5,1.6-3.8l11.9-22.1l10.7-19.9
								l80.8-150.4l11.9-22.1c2.6-4.9,7-8.3,12-9.7l0,0c0,0,0,0,0,0c0.1,0,0.1,0,0.2,0c1.1-0.3,2.3-0.6,3.5-0.7c0.2,0,0.5,0,0.7,0
								c0.1,0,0.2,0,0.4,0c0.9,0,1.8-0.1,2.8,0c0,0,0,0,0,0c0.2,0,0.4,0.1,0.6,0.1c0.4,0.1,0.8,0.2,1.3,0.2c0.7,0.1,1.3,0.2,2,0.4
								l0,0c0.7,0.2,1.4,0.6,2.1,0.9c0.6,0.2,1.1,0.4,1.7,0.7l2.2,1.2l9.5-17.7l-2.2-1.2c-18.9-10.2-42.5-3.5-53.4,14.7l-0.2,0.3
								l-0.8,1.4l-11.9,22.1l-80.8,150.4l-22.6,42c-10.5,19.5-3.1,43.9,16.4,54.4l88.5,47.5c19.5,10.5,43.9,3.1,54.4-16.4
								l103.4-192.4l11.9-22.1C554.5,111.8,547.1,87.4,527.6,76.9"/>
						</g>
						<g>
							<defs>
								<path id="SVGID_00000023271767740319152850000005304858535681253532_" d="M420.2,24.6c-13.7,0-27,7-34.5,19.4l-0.2,0.3
									l-0.8,1.4l-11.9,22.1l-80.8,150.4l-22.6,42c-10.5,19.5-3.1,43.9,16.4,54.4l88.5,47.5c19.5,10.5,43.9,3.1,54.4-16.4
									l103.4-192.4l11.9-22.1c10.5-19.5,3.1-43.9-16.4-54.4l-2.2-1.2l-9.5,17.7l2.2,1.2c1.1,0.6,2,1.3,3,2h0
									c0.3,0.3,0.6,0.5,0.9,0.8c0,0,0,0,0,0c0.3,0.3,0.5,0.5,0.8,0.8c0.5,0.5,1,0.9,1.4,1.5c0.7,0.9,1.3,1.9,1.9,2.9
									c0.1,0.2,0.2,0.4,0.3,0.6c0.5,1,0.9,2,1.3,3.1c0.1,0.2,0.1,0.3,0.1,0.5c0.3,1,0.5,2,0.6,3c0,0.2,0.1,0.4,0.1,0.5
									c0.1,1.1,0.1,2.3,0,3.4c0,0.2-0.1,0.5-0.1,0.7c-0.1,1.2-0.3,2.3-0.7,3.5c-0.4,1.3-0.9,2.5-1.6,3.8l-11.9,22.1l-10.7,19.9
									l-80.8,150.4L411,336.3c-0.1,0.2-0.2,0.3-0.3,0.5c-0.6,1-1.2,2-2,2.9c-0.1,0.1-0.2,0.2-0.3,0.3c-0.8,0.9-1.6,1.7-2.5,2.4
									c-0.1,0-0.1,0.1-0.2,0.1c-1,0.8-2,1.5-3.1,2c0,0,0,0-0.1,0c-1.1,0.6-2.3,1.1-3.5,1.4c0,0,0,0,0,0c0,0-0.1,0-0.2,0
									c-1.2,0.3-2.4,0.6-3.6,0.7c-0.2,0-0.4,0-0.6,0c-0.2,0-0.3,0-0.5,0c0,0,0,0-0.1,0c-0.9,0-1.8,0.1-2.8,0l0,0
									c-0.4,0-0.8-0.1-1.2-0.2c-2.2-0.3-4.3-1-6.4-2.1L295.4,297c-4.9-2.6-8.2-7-9.7-11.9c0-0.1,0-0.2-0.1-0.4
									c-0.7-2.4-0.9-4.8-0.7-7.3c0.1-1.3,0.4-2.6,0.8-3.9c0.4-1.3,0.9-2.5,1.6-3.8l11.9-22.1l10.7-19.9l80.8-150.4l11.9-22.1
									c2.6-4.9,7-8.3,12-9.7l0,0c0,0,0,0,0,0c0.1,0,0.1,0,0.2,0c1.2-0.3,2.3-0.6,3.5-0.7c0.1,0,0.3,0,0.4,0c0.1,0,0.2,0,0.3,0
									c0.1,0,0.2,0,0.4,0c0.9,0,1.8-0.1,2.8,0c0,0,0,0,0,0c0.2,0,0.4,0.1,0.6,0.1c0.4,0.1,0.8,0.2,1.3,0.2c0.7,0.1,1.3,0.2,2,0.4
									l0,0c0.7,0.2,1.4,0.6,2.1,0.9c0.6,0.2,1.1,0.4,1.7,0.7l2.2,1.2l9.5-17.7l-2.2-1.2c-6-3.2-12.5-4.8-18.9-4.8H420.2z"/>
							</defs>
							<clipPath id="SVGID_00000019639906261076624910000014663474150487997874_">
								<use xlink:href="#SVGID_00000023271767740319152850000005304858535681253532_"  style="overflow:visible;"/>
							</clipPath>
						</g>
					</g>
					<g>
						<g>
							<defs>
								<path id="SVGID_00000127032891596992646720000003451009737382168767_" d="M420.2,24.6c-13.7,0-27,7-34.5,19.4l-0.2,0.3
									l-0.8,1.4l-11.9,22.1l-80.8,150.4l-22.6,42c-10.5,19.5-3.1,43.9,16.4,54.4l88.5,47.5c19.5,10.5,43.9,3.1,54.4-16.4
									l103.4-192.4l11.9-22.1c10.5-19.5,3.1-43.9-16.4-54.4l-2.2-1.2l-9.5,17.7l2.2,1.2c1.1,0.6,2,1.3,3,2h0
									c0.3,0.3,0.6,0.5,0.9,0.8c0,0,0,0,0,0c0.3,0.3,0.5,0.5,0.8,0.8c0.5,0.5,1,0.9,1.4,1.5c0.7,0.9,1.3,1.9,1.9,2.9
									c0.1,0.2,0.2,0.4,0.3,0.6c0.5,1,0.9,2,1.3,3.1c0.1,0.2,0.1,0.3,0.1,0.5c0.3,1,0.5,2,0.6,3c0,0.2,0.1,0.4,0.1,0.5
									c0.1,1.1,0.1,2.3,0,3.4c0,0.2-0.1,0.5-0.1,0.7c-0.1,1.2-0.3,2.3-0.7,3.5c-0.4,1.3-0.9,2.5-1.6,3.8l-11.9,22.1l-10.7,19.9
									l-80.8,150.4L411,336.3c-0.1,0.2-0.2,0.3-0.3,0.5c-0.6,1-1.2,2-2,2.9c-0.1,0.1-0.2,0.2-0.3,0.3c-0.8,0.9-1.6,1.7-2.5,2.4
									c-0.1,0-0.1,0.1-0.2,0.1c-1,0.8-2,1.5-3.1,2c0,0,0,0-0.1,0c-1.1,0.6-2.3,1.1-3.5,1.4c0,0,0,0,0,0c0,0-0.1,0-0.2,0
									c-1.2,0.3-2.4,0.6-3.6,0.7c-0.2,0-0.4,0-0.6,0c-0.2,0-0.3,0-0.5,0c0,0,0,0-0.1,0c-0.9,0-1.8,0.1-2.8,0l0,0
									c-0.4,0-0.8-0.1-1.2-0.2c-2.2-0.3-4.3-1-6.4-2.1L295.4,297c-4.9-2.6-8.2-7-9.7-11.9c0-0.1,0-0.2-0.1-0.4
									c-0.7-2.4-0.9-4.8-0.7-7.3c0.1-1.3,0.4-2.6,0.8-3.9c0.4-1.3,0.9-2.5,1.6-3.8l11.9-22.1l10.7-19.9l80.8-150.4l11.9-22.1
									c2.6-4.9,7-8.3,12-9.7l0,0c0,0,0,0,0,0c0.1,0,0.1,0,0.2,0c1.2-0.3,2.3-0.6,3.5-0.7c0.1,0,0.3,0,0.4,0c0.1,0,0.2,0,0.3,0
									c0.1,0,0.2,0,0.4,0c0.9,0,1.8-0.1,2.8,0c0,0,0,0,0,0c0.2,0,0.4,0.1,0.6,0.1c0.4,0.1,0.8,0.2,1.3,0.2c0.7,0.1,1.3,0.2,2,0.4
									l0,0c0.7,0.2,1.4,0.6,2.1,0.9c0.6,0.2,1.1,0.4,1.7,0.7l2.2,1.2l9.5-17.7l-2.2-1.2c-6-3.2-12.5-4.8-18.9-4.8H420.2z"/>
							</defs>
							<clipPath id="SVGID_00000162349083153330057240000014014269844042797466_">
								<use xlink:href="#SVGID_00000127032891596992646720000003451009737382168767_"  style="overflow:visible;"/>
							</clipPath>
						</g>
					</g>
				</g>
			</g>
			<g>
				<g class="st11">
					<polygon points="72.7,634.6 72.7,634.6 238.9,725.8 381.1,466.7 214.9,375.5 					"/>
				</g>
				<g>
					<polygon class="st16" points="65.7,627.6 65.7,627.6 231.9,718.8 374.1,459.7 207.9,368.5 					"/>
				</g>
			</g>
			<g>
				<g class="st11">
					<path d="M582.1,216.5c2.2-22.6-14.1-25.5-26.3-27l-48-5.2c-13.1-1.6-26.1,7.3-27.9,19.8c-1.8,13,7.8,25,21.4,26.7l55.3,6.7
						C569,239,580.1,236.5,582.1,216.5"/>
				</g>
				<g>
					<path class="st12" d="M575.1,209.5c2.2-22.6-14.1-25.5-26.3-27l-48-5.2c-13.1-1.6-26.1,7.3-27.9,19.8c-1.8,13,7.8,25,21.4,26.7
						l55.3,6.7C562,232,573.1,229.5,575.1,209.5"/>
				</g>
			</g>
			<g>
				<g class="st11">
					<path d="M564.1,254.7c0-19.3-11-23.3-23.9-23l-57.8,1.1c-13.9,0.3-26.1,10.9-26.2,23.5c0,13.2,11.8,23.7,26.2,23.4l58.6-1.1
						C554,278.4,564.1,274,564.1,254.7"/>
				</g>
				<g>
					<path class="st12" d="M557.1,247.7c0-19.3-11-23.3-23.9-23l-57.8,1.1c-13.9,0.3-26.1,10.9-26.2,23.5
						c0,13.2,11.8,23.7,26.2,23.4l58.6-1.1C547,271.4,557.1,267,557.1,247.7"/>
				</g>
			</g>
			<g>
				<g class="st11">
					<path d="M536.9,299.5c2.2-20-10.4-23.3-22.8-23.1l-54.9,1c-13.2,0.3-24.8,10.8-24.9,23.5c0,13.2,11.3,23.7,24.9,23.4l55.7-1.1
						C527.3,323.2,534.7,319.5,536.9,299.5"/>
				</g>
				<g>
					<path class="st12" d="M529.9,292.5c2.2-20-10.4-23.3-22.8-23.1l-54.9,1c-13.2,0.3-24.8,10.8-24.9,23.5
						c0,13.2,11.3,23.7,24.9,23.4l55.7-1.1C520.3,316.2,527.7,312.5,529.9,292.5"/>
				</g>
			</g>
			<g>
				<g class="st11">
					<path d="M509,344.4c-0.5-24.1-9-23.3-19.6-23.1l-47.2,0.9c-11.4,0.2-21.3,10.8-21.3,23.4c0,13.2,9.7,23.7,21.5,23.5l47.9-0.9
						C500.8,368,509.3,362.2,509,344.4"/>
				</g>
				<g>
					<path class="st12" d="M502,337.4c-0.5-24.1-9-23.3-19.6-23.1l-47.2,0.9c-11.4,0.2-21.3,10.8-21.3,23.4
						c0,13.2,9.7,23.7,21.5,23.5l47.9-0.9C493.8,361,502.3,355.2,502,337.4"/>
				</g>
			</g>
			<g>
				<circle class="st18" cx="410.4" cy="123.1" r="22.4"/>
				<g>
					<defs>
						<circle id="SVGID_00000169522798224733074240000015678010780130218172_" cx="410.4" cy="123.1" r="22.4"/>
					</defs>
					<clipPath id="SVGID_00000110432101823010784380000012282066665786484610_">
						<use xlink:href="#SVGID_00000169522798224733074240000015678010780130218172_"  style="overflow:visible;"/>
					</clipPath>
					<g style="clip-path:url(#SVGID_00000110432101823010784380000012282066665786484610_);">
						<g>
							<path class="st25" d="M419.3,130.7c-3.3,6-10.5,8.4-16.1,5.4c-5.6-3.1-7.4-10.4-4.2-16.4c1.4-2.6,2.8-4.7,4.1-6.4
								c1.1-5.7,5.6-5.7,8.1-6.4c2.6-0.7,5-0.1,7.3,1.2c2.5,1.4,4.5,3.2,5.2,6.1c0.6,2.3,3,5.8-1.1,9.2
								C421.9,125.5,420.8,127.9,419.3,130.7z"/>
							<path class="st26" d="M426.4,118.1c-0.3-2.3-1.2-4.5-2.5-6.4c-0.4-0.5-0.6-1.1-0.8-1.7c-0.6-1.6-1.7-3-3.4-3.9
								c-1.7-0.9-3.5-1.1-5.1-0.8c-0.6,0.1-1.3,0.2-1.9,0.2c-2.3-0.1-4.6,0.3-6.7,1.3c-2.8,1.2-4.3,4.7-3.3,7.6l0,0l2.2-4
								c1-1.8,3-2.7,4.9-2.3c-0.5,3.1,1.1,6.5,4.3,8.2c3.2,1.7,6.9,1.3,9.2-0.8c1.4,1.4,1.7,3.6,0.7,5.4l-2.2,4
								C424.9,124.1,426.9,121.2,426.4,118.1z"/>
							<path class="st16" d="M426.4,118.1c-0.3-2.3-1.2-4.5-2.5-6.4c-0.4-0.5-0.6-1.1-0.8-1.7c-0.6-1.6-1.7-3-3.4-3.9
								c-1.7-0.9-3.5-1.1-5.1-0.8c-0.6,0.1-1.3,0.2-1.9,0.2c-2.3-0.1-4.6,0.3-6.7,1.3c-2.8,1.2-4.3,4.7-3.3,7.6l0,0l2.2-4
								c1-1.8,3-2.7,4.9-2.3c-0.5,3.1,1.1,6.5,4.3,8.2c3.2,1.7,6.9,1.3,9.2-0.8c1.4,1.4,1.7,3.6,0.7,5.4l-2.2,4
								C424.9,124.1,426.9,121.2,426.4,118.1z"/>
							<path class="st16" d="M413,122.6c0.4-0.7,1-1.3,1.8-1.5c0.8-0.3,1.6-0.2,2.3,0.2c0.7,0.4,1.3,1,1.5,1.8
								c0.3,0.8,0.2,1.6-0.2,2.3l-0.9-0.4c0.5-1,0.1-2.3-0.9-2.8c0,0,0,0,0,0c-0.5-0.3-1.1-0.3-1.6-0.1c-0.5,0.2-1,0.5-1.2,1
								L413,122.6z"/>
							<path class="st16" d="M403.8,117.9c0.8-1.5,2.6-2.1,4.1-1.3c0.7,0.4,1.3,1,1.5,1.8c0.3,0.8,0.2,1.6-0.2,2.3l-0.9-0.4
								c0.5-1,0.1-2.3-0.9-2.8c-1-0.5-2.3-0.1-2.8,0.9L403.8,117.9z"/>
							<path class="st26" d="M408.3,158.8l6.5-11.3c-0.1-1.4-0.4-2.8-0.8-4.1c-0.2-0.7-0.5-1.4-0.8-2c-0.7-1.5-1.5-2.9-2.6-4.1
								c-2,0.4-4,0.3-6-0.5c-0.5-0.2-1-0.4-1.4-0.6c-2.3-1.3-4-3.3-4.9-5.6c-1.6-0.2-3.2-0.1-4.8,0.1c-0.8,0.1-1.6,0.3-2.4,0.5
								c-1.3,0.4-2.7,0.9-3.9,1.6l-5.9,11.4L408.3,158.8z"/>
						</g>
						<path class="st27" d="M404.7,136.7c2,0.7,4,0.9,6,0.5c-1.1-1.4-2.5-2.7-4.1-3.7c-2.6-1.7-5.4-2.7-8.3-3
							c0.9,2.3,2.6,4.3,4.9,5.6C403.7,136.4,404.2,136.6,404.7,136.7z"/>
					</g>
				</g>
			</g>
		</g>
	</g>
</g>
</svg>
