<svg id="Layer_1" data-name="Layer 1" xmlns="http://www.w3.org/2000/svg" viewBox="0 0 1000 1000"><defs><style>.cls-1{fill:#54c8e8;}.cls-2{fill:#cbcccb;}.cls-3{fill:#0167fd;}.cls-4{fill:#fff;}</style></defs><path class="cls-1" d="M922.17,134.85H76.88a52.83,52.83,0,0,0-52.83,52.83V645.56a52.83,52.83,0,0,0,52.83,52.83H440.09V639H559v59.43H922.17A52.83,52.83,0,0,0,975,645.56V187.68a52.83,52.83,0,0,0-52.83-52.83"/><path class="cls-2" d="M440.09,757.82H380.66a59.44,59.44,0,0,0-59.44,59.44H677.83a59.44,59.44,0,0,0-59.44-59.44H559V698.39H440.09Z"/><rect class="cls-3" x="440.09" y="620" width="118.87" height="78.39"/><rect class="cls-4" x="61.77" y="182.54" width="874.51" height="437.27"/></svg>